<?xml version="1.0" standalone="no"?>
<!DOCTYPE svg PUBLIC "-//W3C//DTD SVG 20010904//EN"
 "http://www.w3.org/TR/2001/REC-SVG-20010904/DTD/svg10.dtd">
<svg version="1.0" xmlns="http://www.w3.org/2000/svg"
 width="512.000000pt" height="512.000000pt" viewBox="0 0 512.000000 512.000000"
 preserveAspectRatio="xMidYMid meet">

<g transform="translate(0.000000,512.000000) scale(0.100000,-0.100000)"
fill="#000000" stroke="none">
<path d="M0 2560 l0 -2560 2560 0 2560 0 0 2560 0 2560 -2560 0 -2560 0 0
-2560z m2168 1090 l37 -81 90 8 c117 10 415 10 530 0 l90 -8 29 65 c45 104 36
99 149 76 126 -26 305 -81 435 -132 l102 -41 49 -77 c234 -364 376 -768 410
-1165 12 -131 13 -379 3 -462 -7 -52 -7 -52 -92 -111 -109 -75 -259 -159 -380
-212 -132 -58 -313 -122 -320 -113 -32 40 -72 101 -116 177 l-52 90 95 43 c52
23 110 52 129 63 l34 22 -25 20 -25 19 -92 -37 c-241 -96 -413 -128 -688 -128
-275 0 -447 32 -688 128 l-92 37 -25 -19 -25 -20 34 -22 c19 -11 77 -40 129
-63 l94 -43 -46 -80 c-44 -76 -121 -194 -127 -194 -1 0 -51 18 -111 39 -221
79 -414 177 -583 293 -82 57 -85 61 -92 106 -12 86 -8 375 7 507 45 404 175
763 407 1126 l48 76 103 41 c159 63 430 141 530 151 4 1 25 -35 45 -79z"/>
<path d="M2950 2961 c-77 -25 -109 -43 -169 -97 -50 -45 -117 -131 -109 -139
2 -3 21 -11 41 -20 36 -15 37 -15 51 14 20 37 114 123 160 145 98 46 211 41
317 -15 54 -29 132 -100 155 -142 10 -18 12 -18 47 -1 20 10 37 21 37 25 0 3
-10 19 -22 35 -130 174 -333 252 -508 195z"/>
<path d="M2350 2751 c-52 -29 -171 -46 -320 -46 -151 0 -161 2 -295 40 -17 5
-24 -1 -38 -31 -21 -43 -19 -46 61 -70 28 -8 52 -19 52 -23 0 -4 -7 -22 -16
-39 -73 -147 -1 -355 146 -421 222 -101 447 161 351 409 -11 30 -17 57 -13 60
4 4 33 14 65 24 31 9 57 21 57 25 0 10 -29 81 -33 81 -1 0 -9 -4 -17 -9z"/>
<path d="M2983 2734 c-57 -21 -119 -84 -151 -152 -36 -77 -37 -191 -3 -270 31
-68 113 -144 175 -162 56 -15 141 -8 186 15 54 28 117 101 140 163 29 75 25
195 -8 259 -31 60 -78 111 -126 135 -53 27 -156 33 -213 12z"/>
</g>
</svg>
